<svg id="visual" viewBox="0 0 960 540" width="960" height="540" xmlns="http://www.w3.org/2000/svg" xmlns:xlink="http://www.w3.org/1999/xlink" version="1.1"><rect x="0" y="0" width="960" height="540" fill="#001220"></rect><path d="M0 272L26.7 271.7C53.3 271.3 106.7 270.7 160 281.7C213.3 292.7 266.7 315.3 320 315.3C373.3 315.3 426.7 292.7 480 285C533.3 277.3 586.7 284.7 640 291.7C693.3 298.7 746.7 305.3 800 308.8C853.3 312.3 906.7 312.7 933.3 312.8L960 313L960 541L933.3 541C906.7 541 853.3 541 800 541C746.7 541 693.3 541 640 541C586.7 541 533.3 541 480 541C426.7 541 373.3 541 320 541C266.7 541 213.3 541 160 541C106.7 541 53.3 541 26.7 541L0 541Z" fill="#1c1836"></path><path d="M0 348L26.7 339.8C53.3 331.7 106.7 315.3 160 311.5C213.3 307.7 266.7 316.3 320 324.2C373.3 332 426.7 339 480 335C533.3 331 586.7 316 640 314.7C693.3 313.3 746.7 325.7 800 331C853.3 336.3 906.7 334.7 933.3 333.8L960 333L960 541L933.3 541C906.7 541 853.3 541 800 541C746.7 541 693.3 541 640 541C586.7 541 533.3 541 480 541C426.7 541 373.3 541 320 541C266.7 541 213.3 541 160 541C106.7 541 53.3 541 26.7 541L0 541Z" fill="#242345"></path><path d="M0 356L26.7 359.2C53.3 362.3 106.7 368.7 160 367.7C213.3 366.7 266.7 358.3 320 360.2C373.3 362 426.7 374 480 372.7C533.3 371.3 586.7 356.7 640 348.2C693.3 339.7 746.7 337.3 800 343C853.3 348.7 906.7 362.3 933.3 369.2L960 376L960 541L933.3 541C906.7 541 853.3 541 800 541C746.7 541 693.3 541 640 541C586.7 541 533.3 541 480 541C426.7 541 373.3 541 320 541C266.7 541 213.3 541 160 541C106.7 541 53.3 541 26.7 541L0 541Z" fill="#2c2e56"></path><path d="M0 333L26.7 338.3C53.3 343.7 106.7 354.3 160 359.3C213.3 364.3 266.7 363.7 320 357.8C373.3 352 426.7 341 480 340C533.3 339 586.7 348 640 354.2C693.3 360.3 746.7 363.7 800 370.5C853.3 377.3 906.7 387.7 933.3 392.8L960 398L960 541L933.3 541C906.7 541 853.3 541 800 541C746.7 541 693.3 541 640 541C586.7 541 533.3 541 480 541C426.7 541 373.3 541 320 541C266.7 541 213.3 541 160 541C106.7 541 53.3 541 26.7 541L0 541Z" fill="#333b66"></path><path d="M0 365L26.7 370.8C53.3 376.7 106.7 388.3 160 391.3C213.3 394.3 266.7 388.7 320 381.3C373.3 374 426.7 365 480 363C533.3 361 586.7 366 640 370.5C693.3 375 746.7 379 800 376C853.3 373 906.7 363 933.3 358L960 353L960 541L933.3 541C906.7 541 853.3 541 800 541C746.7 541 693.3 541 640 541C586.7 541 533.3 541 480 541C426.7 541 373.3 541 320 541C266.7 541 213.3 541 160 541C106.7 541 53.3 541 26.7 541L0 541Z" fill="#3a4777"></path><path d="M0 377L26.7 382C53.3 387 106.7 397 160 400.5C213.3 404 266.7 401 320 404.7C373.3 408.3 426.7 418.7 480 418.8C533.3 419 586.7 409 640 406.8C693.3 404.7 746.7 410.3 800 406C853.3 401.7 906.7 387.3 933.3 380.2L960 373L960 541L933.3 541C906.7 541 853.3 541 800 541C746.7 541 693.3 541 640 541C586.7 541 533.3 541 480 541C426.7 541 373.3 541 320 541C266.7 541 213.3 541 160 541C106.7 541 53.3 541 26.7 541L0 541Z" fill="#3f5489"></path><path d="M0 410L26.7 414.2C53.3 418.3 106.7 426.7 160 431.8C213.3 437 266.7 439 320 439.5C373.3 440 426.7 439 480 436.2C533.3 433.3 586.7 428.7 640 426.7C693.3 424.7 746.7 425.3 800 426.2C853.3 427 906.7 428 933.3 428.5L960 429L960 541L933.3 541C906.7 541 853.3 541 800 541C746.7 541 693.3 541 640 541C586.7 541 533.3 541 480 541C426.7 541 373.3 541 320 541C266.7 541 213.3 541 160 541C106.7 541 53.3 541 26.7 541L0 541Z" fill="#44629b"></path><path d="M0 421L26.7 425.8C53.3 430.7 106.7 440.3 160 443.5C213.3 446.7 266.7 443.3 320 437.7C373.3 432 426.7 424 480 420.2C533.3 416.3 586.7 416.7 640 421.8C693.3 427 746.7 437 800 441.2C853.3 445.3 906.7 443.7 933.3 442.8L960 442L960 541L933.3 541C906.7 541 853.3 541 800 541C746.7 541 693.3 541 640 541C586.7 541 533.3 541 480 541C426.7 541 373.3 541 320 541C266.7 541 213.3 541 160 541C106.7 541 53.3 541 26.7 541L0 541Z" fill="#4970ad"></path><path d="M0 470L26.7 464.5C53.3 459 106.7 448 160 449C213.3 450 266.7 463 320 469.7C373.3 476.3 426.7 476.7 480 476.5C533.3 476.3 586.7 475.7 640 473.8C693.3 472 746.7 469 800 465.5C853.3 462 906.7 458 933.3 456L960 454L960 541L933.3 541C906.7 541 853.3 541 800 541C746.7 541 693.3 541 640 541C586.7 541 533.3 541 480 541C426.7 541 373.3 541 320 541C266.7 541 213.3 541 160 541C106.7 541 53.3 541 26.7 541L0 541Z" fill="#4c7ebf"></path><path d="M0 492L26.7 487.5C53.3 483 106.7 474 160 472C213.3 470 266.7 475 320 473.8C373.3 472.7 426.7 465.3 480 465.7C533.3 466 586.7 474 640 479.7C693.3 485.3 746.7 488.7 800 486.5C853.3 484.3 906.7 476.7 933.3 472.8L960 469L960 541L933.3 541C906.7 541 853.3 541 800 541C746.7 541 693.3 541 640 541C586.7 541 533.3 541 480 541C426.7 541 373.3 541 320 541C266.7 541 213.3 541 160 541C106.7 541 53.3 541 26.7 541L0 541Z" fill="#4e8dd2"></path><path d="M0 484L26.7 484.8C53.3 485.7 106.7 487.3 160 491C213.3 494.7 266.7 500.3 320 500.2C373.3 500 426.7 494 480 490.2C533.3 486.3 586.7 484.7 640 484.7C693.3 484.7 746.7 486.3 800 490.3C853.3 494.3 906.7 500.7 933.3 503.8L960 507L960 541L933.3 541C906.7 541 853.3 541 800 541C746.7 541 693.3 541 640 541C586.7 541 533.3 541 480 541C426.7 541 373.3 541 320 541C266.7 541 213.3 541 160 541C106.7 541 53.3 541 26.7 541L0 541Z" fill="#4f9ce4"></path><path d="M0 504L26.7 504.8C53.3 505.7 106.7 507.3 160 509.8C213.3 512.3 266.7 515.7 320 516.3C373.3 517 426.7 515 480 514C533.3 513 586.7 513 640 513C693.3 513 746.7 513 800 514.8C853.3 516.7 906.7 520.3 933.3 522.2L960 524L960 541L933.3 541C906.7 541 853.3 541 800 541C746.7 541 693.3 541 640 541C586.7 541 533.3 541 480 541C426.7 541 373.3 541 320 541C266.7 541 213.3 541 160 541C106.7 541 53.3 541 26.7 541L0 541Z" fill="#4facf7"></path></svg>