<svg id="visual" viewBox="0 0 960 540" width="960" height="540" xmlns="http://www.w3.org/2000/svg" xmlns:xlink="http://www.w3.org/1999/xlink" version="1.1"><rect x="0" y="0" width="960" height="540" fill="#001220"></rect><path d="M0 346L26.7 336.8C53.3 327.7 106.7 309.3 160 304C213.3 298.7 266.7 306.3 320 302.5C373.3 298.7 426.7 283.3 480 275C533.3 266.7 586.7 265.3 640 265C693.3 264.7 746.7 265.3 800 269.5C853.3 273.7 906.7 281.3 933.3 285.2L960 289L960 541L933.3 541C906.7 541 853.3 541 800 541C746.7 541 693.3 541 640 541C586.7 541 533.3 541 480 541C426.7 541 373.3 541 320 541C266.7 541 213.3 541 160 541C106.7 541 53.3 541 26.7 541L0 541Z" fill="#1c1836"></path><path d="M0 285L26.7 286C53.3 287 106.7 289 160 299.3C213.3 309.7 266.7 328.3 320 335.2C373.3 342 426.7 337 480 331.2C533.3 325.3 586.7 318.7 640 323.3C693.3 328 746.7 344 800 352.7C853.3 361.3 906.7 362.7 933.3 363.3L960 364L960 541L933.3 541C906.7 541 853.3 541 800 541C746.7 541 693.3 541 640 541C586.7 541 533.3 541 480 541C426.7 541 373.3 541 320 541C266.7 541 213.3 541 160 541C106.7 541 53.3 541 26.7 541L0 541Z" fill="#242345"></path><path d="M0 327L26.7 325.2C53.3 323.3 106.7 319.7 160 324.2C213.3 328.7 266.7 341.3 320 341.7C373.3 342 426.7 330 480 334C533.3 338 586.7 358 640 364C693.3 370 746.7 362 800 356.7C853.3 351.3 906.7 348.7 933.3 347.3L960 346L960 541L933.3 541C906.7 541 853.3 541 800 541C746.7 541 693.3 541 640 541C586.7 541 533.3 541 480 541C426.7 541 373.3 541 320 541C266.7 541 213.3 541 160 541C106.7 541 53.3 541 26.7 541L0 541Z" fill="#2c2e56"></path><path d="M0 359L26.7 358.2C53.3 357.3 106.7 355.7 160 359.2C213.3 362.7 266.7 371.3 320 372.2C373.3 373 426.7 366 480 360.2C533.3 354.3 586.7 349.7 640 355.5C693.3 361.3 746.7 377.7 800 381.7C853.3 385.7 906.7 377.3 933.3 373.2L960 369L960 541L933.3 541C906.7 541 853.3 541 800 541C746.7 541 693.3 541 640 541C586.7 541 533.3 541 480 541C426.7 541 373.3 541 320 541C266.7 541 213.3 541 160 541C106.7 541 53.3 541 26.7 541L0 541Z" fill="#333b66"></path><path d="M0 353L26.7 362.5C53.3 372 106.7 391 160 400.3C213.3 409.7 266.7 409.3 320 401.8C373.3 394.3 426.7 379.7 480 378C533.3 376.3 586.7 387.7 640 394.8C693.3 402 746.7 405 800 403.5C853.3 402 906.7 396 933.3 393L960 390L960 541L933.3 541C906.7 541 853.3 541 800 541C746.7 541 693.3 541 640 541C586.7 541 533.3 541 480 541C426.7 541 373.3 541 320 541C266.7 541 213.3 541 160 541C106.7 541 53.3 541 26.7 541L0 541Z" fill="#3a4777"></path><path d="M0 404L26.7 405C53.3 406 106.7 408 160 405.2C213.3 402.3 266.7 394.7 320 395.2C373.3 395.7 426.7 404.3 480 406.3C533.3 408.3 586.7 403.7 640 402.5C693.3 401.3 746.7 403.7 800 401.3C853.3 399 906.7 392 933.3 388.5L960 385L960 541L933.3 541C906.7 541 853.3 541 800 541C746.7 541 693.3 541 640 541C586.7 541 533.3 541 480 541C426.7 541 373.3 541 320 541C266.7 541 213.3 541 160 541C106.7 541 53.3 541 26.7 541L0 541Z" fill="#3f5489"></path><path d="M0 397L26.7 398.5C53.3 400 106.7 403 160 409.3C213.3 415.7 266.7 425.3 320 424.7C373.3 424 426.7 413 480 413.3C533.3 413.7 586.7 425.3 640 428.2C693.3 431 746.7 425 800 420C853.3 415 906.7 411 933.3 409L960 407L960 541L933.3 541C906.7 541 853.3 541 800 541C746.7 541 693.3 541 640 541C586.7 541 533.3 541 480 541C426.7 541 373.3 541 320 541C266.7 541 213.3 541 160 541C106.7 541 53.3 541 26.7 541L0 541Z" fill="#44629b"></path><path d="M0 417L26.7 419.8C53.3 422.7 106.7 428.3 160 431C213.3 433.7 266.7 433.3 320 437.7C373.3 442 426.7 451 480 452.3C533.3 453.7 586.7 447.3 640 446.8C693.3 446.3 746.7 451.7 800 450C853.3 448.3 906.7 439.7 933.3 435.3L960 431L960 541L933.3 541C906.7 541 853.3 541 800 541C746.7 541 693.3 541 640 541C586.7 541 533.3 541 480 541C426.7 541 373.3 541 320 541C266.7 541 213.3 541 160 541C106.7 541 53.3 541 26.7 541L0 541Z" fill="#4970ad"></path><path d="M0 448L26.7 452.7C53.3 457.3 106.7 466.7 160 469.7C213.3 472.7 266.7 469.3 320 469.2C373.3 469 426.7 472 480 469.5C533.3 467 586.7 459 640 458.2C693.3 457.3 746.7 463.7 800 461.3C853.3 459 906.7 448 933.3 442.5L960 437L960 541L933.3 541C906.7 541 853.3 541 800 541C746.7 541 693.3 541 640 541C586.7 541 533.3 541 480 541C426.7 541 373.3 541 320 541C266.7 541 213.3 541 160 541C106.7 541 53.3 541 26.7 541L0 541Z" fill="#4c7ebf"></path><path d="M0 467L26.7 469.2C53.3 471.3 106.7 475.7 160 476.8C213.3 478 266.7 476 320 473.7C373.3 471.3 426.7 468.7 480 469.8C533.3 471 586.7 476 640 479.8C693.3 483.7 746.7 486.3 800 488C853.3 489.7 906.7 490.3 933.3 490.7L960 491L960 541L933.3 541C906.7 541 853.3 541 800 541C746.7 541 693.3 541 640 541C586.7 541 533.3 541 480 541C426.7 541 373.3 541 320 541C266.7 541 213.3 541 160 541C106.7 541 53.3 541 26.7 541L0 541Z" fill="#4e8dd2"></path><path d="M0 483L26.7 485.2C53.3 487.3 106.7 491.7 160 495C213.3 498.3 266.7 500.7 320 498.3C373.3 496 426.7 489 480 488C533.3 487 586.7 492 640 492C693.3 492 746.7 487 800 487.7C853.3 488.3 906.7 494.7 933.3 497.8L960 501L960 541L933.3 541C906.7 541 853.3 541 800 541C746.7 541 693.3 541 640 541C586.7 541 533.3 541 480 541C426.7 541 373.3 541 320 541C266.7 541 213.3 541 160 541C106.7 541 53.3 541 26.7 541L0 541Z" fill="#4f9ce4"></path><path d="M0 506L26.7 506.8C53.3 507.7 106.7 509.3 160 508.7C213.3 508 266.7 505 320 506.2C373.3 507.3 426.7 512.7 480 514.2C533.3 515.7 586.7 513.3 640 511.3C693.3 509.3 746.7 507.7 800 509C853.3 510.3 906.7 514.7 933.3 516.8L960 519L960 541L933.3 541C906.7 541 853.3 541 800 541C746.7 541 693.3 541 640 541C586.7 541 533.3 541 480 541C426.7 541 373.3 541 320 541C266.7 541 213.3 541 160 541C106.7 541 53.3 541 26.7 541L0 541Z" fill="#4facf7"></path></svg>